<svg width="100" height="100" viewBox="0 0 100 100" fill="none" xmlns="http://www.w3.org/2000/svg">
<g id="folder2-open">
<path id="Vector 191 (Stroke)" d="M6.24998 21.875C6.24998 16.6973 10.4473 12.5 15.625 12.5H32.8996C38.8856 12.5 43.9045 15.9997 47.3463 19.8999C49.9078 22.8024 52.9919 25 56.25 25H84.3793C89.5598 25 93.75 29.2002 93.75 34.375V38.3708C97.3096 40.0292 99.6211 43.8506 99.0977 48.0378L95.0945 80.063C94.1171 87.8822 87.4703 93.75 79.5902 93.75H20.4098C12.5297 93.75 5.88282 87.8822 4.90542 80.063L0.902267 48.0378C0.378866 43.8506 2.69032 40.0292 6.24998 38.3708V21.875ZM12.5 37.5H87.5V34.375C87.5 32.6463 86.1024 31.25 84.3793 31.25H56.25C50.2256 31.25 45.5592 27.3204 42.6601 24.0353C39.8363 20.8354 36.3828 18.75 32.8996 18.75H15.625C13.8991 18.75 12.5 20.1491 12.5 21.875V37.5ZM10.2049 43.75C8.32519 43.75 6.87086 45.3974 7.104 47.2626L11.1072 79.2878C11.6936 83.9793 15.6817 87.5 20.4098 87.5H79.5902C84.3182 87.5 88.3064 83.9793 88.8928 79.2878L92.896 47.2626C93.1291 45.3974 91.6748 43.75 89.7951 43.75H10.2049Z" fill="#A0D2EB"/>
</g>
</svg>
