<svg width="100" height="100" viewBox="0 0 100 100" fill="none" xmlns="http://www.w3.org/2000/svg">
<g id="gear-wide-connected">
<path id="Union" d="M44.1777 4.54467C45.6943 -1.5149 54.3057 -1.51489 55.8224 4.54468L56.2693 6.33051C57.4127 10.8986 63.1311 12.4309 66.4054 9.04644L67.6854 7.72335C72.0286 3.23394 79.4863 7.53965 77.77 13.5457L77.2642 15.3158C75.9703 19.8436 80.1565 24.0297 84.6842 22.7359L86.4543 22.23C92.4604 20.5137 96.7661 27.9714 92.2766 32.3147L90.9536 33.5947C87.5691 36.8689 89.1014 42.5873 93.6695 43.7307L95.4553 44.1777C101.515 45.6943 101.515 54.3057 95.4553 55.8224L93.6695 56.2693C89.1014 57.4127 87.5691 63.1311 90.9536 66.4054L92.2767 67.6854C96.7661 72.0286 92.4604 79.4863 86.4543 77.77L84.6842 77.2642C80.1565 75.9703 75.9703 80.1565 77.2642 84.6842L77.77 86.4543C79.4863 92.4604 72.0286 96.7661 67.6854 92.2766L66.4054 90.9536C63.1311 87.5691 57.4127 89.1014 56.2693 93.6695L55.8224 95.4553C54.3057 101.515 45.6943 101.515 44.1776 95.4553L43.7307 93.6695C42.5873 89.1014 36.8689 87.5691 33.5947 90.9536L32.3146 92.2767C27.9714 96.7661 20.5137 92.4604 22.23 86.4543L22.7359 84.6842C24.0297 80.1565 19.8435 75.9703 15.3158 77.2642L13.5457 77.77C7.53964 79.4863 3.23395 72.0286 7.72336 67.6854L9.04645 66.4054C12.4309 63.1311 10.8986 57.4127 6.3305 56.2693L4.54467 55.8224C-1.5149 54.3057 -1.51489 45.6943 4.54468 44.1777L6.33051 43.7307C10.8986 42.5873 12.4309 36.8689 9.04644 33.5947L7.72336 32.3146C3.23394 27.9714 7.53965 20.5137 13.5457 22.23L15.3158 22.7359C19.8436 24.0297 24.0297 19.8435 22.7359 15.3158L22.23 13.5457C20.5137 7.53964 27.9714 3.23395 32.3147 7.72337L33.5947 9.04645C36.8689 12.4309 42.5873 10.8986 43.7307 6.3305L44.1777 4.54467ZM81.0811 53.1237H51.5618L33.8488 76.741C38.5616 79.5936 44.089 81.2355 50 81.2355C66.1966 81.2355 79.5139 68.9079 81.0811 53.1237ZM81.0811 46.8766C79.5139 31.0924 66.1966 18.7648 50 18.7648C44.0891 18.7648 38.5616 20.4067 33.8488 23.2593L51.5618 46.8766H81.0811ZM31.5496 24.7938C31.367 24.9277 31.1859 25.0635 31.0064 25.2012L31.5496 24.7938ZM28.8538 27.0111C22.6512 32.7195 18.7647 40.906 18.7647 50.0002C18.7647 59.0943 22.6512 67.2808 28.8538 72.9892L46.0956 50.0002L28.8538 27.0111ZM31.0063 74.799C31.1859 74.9368 31.3671 75.0727 31.5497 75.2066L31.0063 74.799Z" fill="#A0D2EB"/>
</g>
</svg>
