<svg width="20" height="20" viewBox="0 0 20 20" fill="none" xmlns="http://www.w3.org/2000/svg">
<g id="Mail">
<g id="Group">
<g id="Group_2">
<path id="Vector" d="M19.8238 3.97351L13.7582 10L19.8238 16.0266C19.9335 15.7974 20 15.544 20 15.2735V4.7266C20 4.45601 19.9335 4.20269 19.8238 3.97351Z" fill="#F3F3F3"/>
</g>
</g>
<g id="Group_3">
<g id="Group_4">
<path id="Vector_2" d="M18.2422 2.96875H1.75779C1.4872 2.96875 1.23388 3.03527 1.0047 3.14492L8.75716 10.8583C9.44263 11.5438 10.5573 11.5438 11.2428 10.8583L18.9952 3.14492C18.7661 3.03527 18.5127 2.96875 18.2422 2.96875Z" fill="#F3F3F3"/>
</g>
</g>
<g id="Group_5">
<g id="Group_6">
<path id="Vector_3" d="M0.176172 3.97351C0.0665234 4.20269 0 4.45601 0 4.7266V15.2735C0 15.5441 0.0665234 15.7974 0.176172 16.0266L6.24176 10L0.176172 3.97351Z" fill="#F3F3F3"/>
</g>
</g>
<g id="Group_7">
<g id="Group_8">
<path id="Vector_4" d="M12.9297 10.8286L12.0713 11.6869C10.9292 12.8291 9.07072 12.8291 7.92857 11.6869L7.07029 10.8286L1.0047 16.8551C1.23388 16.9648 1.4872 17.0313 1.75779 17.0313H18.2422C18.5127 17.0313 18.7661 16.9648 18.9952 16.8551L12.9297 10.8286Z" fill="#F3F3F3"/>
</g>
</g>
</g>
</svg>
