<svg width="100" height="100" viewBox="0 0 100 100" fill="none" xmlns="http://www.w3.org/2000/svg">
<g id="User" clip-path="url(#clip0_85_65)">
<g id="Group">
<g id="Group_2">
<path id="Vector" d="M81.024 51.4648H85.3791C86.0605 54.8369 89.0465 57.3838 92.6164 57.3838C96.6877 57.3838 100 54.0715 100 50C100 45.9285 96.6877 42.6162 92.6162 42.6162C89.0463 42.6162 86.0604 45.1631 85.3789 48.5352H81.0238C80.6756 41.0736 77.6834 34.2916 72.9633 29.1082L80.8078 21.2639C82.352 22.3883 84.2506 23.0541 86.3027 23.0541C91.4621 23.0541 95.6594 18.8566 95.6594 13.6973C95.6594 8.53789 91.4621 4.34063 86.3027 4.34063C81.1434 4.34063 76.9461 8.53808 76.9461 13.6973C76.9461 15.7494 77.6117 17.648 78.7363 19.1922L70.8918 27.0365C65.7084 22.3166 58.9264 19.3242 51.4648 18.9762V14.6211C54.8369 13.9396 57.3838 10.9537 57.3838 7.38379C57.3838 3.3123 54.0715 0 50 0C45.9285 0 42.6162 3.3123 42.6162 7.38379C42.6162 10.9537 45.1631 13.9396 48.5352 14.6211V18.976C41.0736 19.3242 34.2916 22.3164 29.1082 27.0363L21.2643 19.1926C22.3889 17.6482 23.0547 15.7494 23.0547 13.6973C23.0547 10.5816 21.5115 7.68027 18.9268 5.93613C18.2557 5.48379 17.3453 5.66035 16.8932 6.33105C16.4406 7.00176 16.6174 7.91211 17.2879 8.36465C19.0645 9.56328 20.1248 11.5568 20.1248 13.6973C20.1248 17.2414 17.2412 20.125 13.6971 20.125C10.1529 20.125 7.26953 17.2414 7.26953 13.6973C7.26953 10.8352 9.19043 8.29121 11.9408 7.51094C12.7191 7.29004 13.1711 6.48008 12.9502 5.70176C12.7293 4.92344 11.9189 4.47207 11.1412 4.69238C7.13652 5.82871 4.33984 9.53164 4.33984 13.6973C4.33984 18.857 8.5375 23.0547 13.6973 23.0547C15.7496 23.0547 17.6484 22.3889 19.1926 21.2643L27.0365 29.108C22.3164 34.2914 19.3242 41.0734 18.976 48.535H14.6211C13.9396 45.1629 10.9537 42.616 7.38379 42.616C3.3123 42.6162 0 45.9285 0 50C0 54.0715 3.3123 57.3838 7.38379 57.3838C10.9537 57.3838 13.9396 54.8369 14.6211 51.4648H18.9762C19.3244 58.9264 22.3166 65.7084 27.0367 70.8918L19.1922 78.7361C17.648 77.6117 15.7494 76.9459 13.6973 76.9459C8.53789 76.9459 4.34063 81.1434 4.34063 86.3027C4.34063 91.4621 8.53789 95.6594 13.6973 95.6594C18.8566 95.6594 23.0539 91.4619 23.0539 86.3027C23.0539 84.2506 22.3883 82.352 21.2637 80.8078L29.1082 72.9635C34.2916 77.6834 41.0736 80.6758 48.5352 81.0238V85.3787C45.1631 86.0602 42.6162 89.0461 42.6162 92.616C42.6162 96.6877 45.9285 100 50 100C54.0715 100 57.3838 96.6877 57.3838 92.6162C57.3838 89.0463 54.8369 86.0604 51.4648 85.3789V81.024C58.9264 80.6758 65.7084 77.6836 70.8918 72.9637L78.7357 80.8074C77.6111 82.3518 76.9453 84.2506 76.9453 86.3027C76.9453 91.4623 81.143 95.6602 86.3027 95.6602C91.4625 95.6602 95.6602 91.4625 95.6602 86.3027C95.6602 85.2898 95.4988 84.2924 95.1807 83.3375C94.9246 82.5701 94.0947 82.1553 93.3279 82.4109C92.5603 82.6668 92.1455 83.4963 92.4014 84.2639C92.6197 84.9191 92.7307 85.6053 92.7307 86.3025C92.7307 89.8467 89.8471 92.7303 86.3029 92.7303C82.7588 92.7303 79.8752 89.8469 79.8752 86.3025C79.8752 82.7582 82.7588 79.8748 86.3029 79.8748C87.1141 79.8748 87.9051 80.024 88.6539 80.3184C89.4061 80.6143 90.257 80.2438 90.5531 79.4908C90.849 78.7379 90.4785 77.8877 89.7256 77.5916C88.634 77.1627 87.4826 76.9451 86.3031 76.9451C84.2508 76.9451 82.352 77.6109 80.8078 78.7355L72.9639 70.8918C77.6834 65.7084 80.6758 58.9264 81.024 51.4648ZM92.6162 45.5459C95.0723 45.5459 97.0703 47.5439 97.0703 50C97.0703 52.4561 95.0723 54.4541 92.6162 54.4541C90.1602 54.4541 88.1621 52.4561 88.1621 50C88.1621 47.5439 90.1604 45.5459 92.6162 45.5459ZM86.3027 7.27031C89.8467 7.27031 92.7297 10.1535 92.7297 13.6973C92.7297 17.2412 89.8465 20.1244 86.3027 20.1244C82.759 20.1244 79.8758 17.2412 79.8758 13.6973C79.8758 10.1533 82.759 7.27031 86.3027 7.27031ZM45.5459 7.38379C45.5459 4.92773 47.5441 2.92969 50 2.92969C52.4559 2.92969 54.4541 4.92773 54.4541 7.38379C54.4541 9.83984 52.4559 11.8379 50 11.8379C47.5441 11.8379 45.5459 9.83965 45.5459 7.38379ZM7.38379 54.4541C4.92773 54.4541 2.92969 52.4561 2.92969 50C2.92969 47.5439 4.92773 45.5459 7.38379 45.5459C9.83984 45.5459 11.8377 47.5439 11.8377 50C11.8377 52.4561 9.83965 54.4541 7.38379 54.4541ZM50 21.8703C65.5107 21.8703 78.1297 34.4893 78.1297 50C78.1297 65.5107 65.5107 78.1297 50 78.1297C34.4893 78.1297 21.8703 65.5109 21.8703 50C21.8703 34.4891 34.4893 21.8703 50 21.8703ZM13.6973 92.7297C10.1533 92.7297 7.27031 89.8465 7.27031 86.3027C7.27031 82.7588 10.1535 79.8756 13.6973 79.8756C17.241 79.8756 20.1242 82.7588 20.1242 86.3027C20.1242 89.8467 17.241 92.7297 13.6973 92.7297ZM54.4541 92.6162C54.4541 95.0723 52.4559 97.0703 50 97.0703C47.5441 97.0703 45.5459 95.0723 45.5459 92.6162C45.5459 90.1602 47.5441 88.1621 50 88.1621C52.4559 88.1621 54.4541 90.1604 54.4541 92.6162Z" fill="#A0D2EB" stroke="#A0D2EB" stroke-width="1.5"/>
<path id="Vector_2" d="M33.4277 68.0371H41.7002C41.7047 68.0371 41.709 68.0377 41.7135 68.0377C41.7179 68.0377 41.7222 68.0371 41.7267 68.0371H46.582C47.3912 68.0371 48.0469 67.3813 48.0469 66.5723C48.0469 65.7633 47.3912 65.1074 46.582 65.1074H43.1783V62.627C43.1783 61.818 42.5226 61.1621 41.7135 61.1621C40.9043 61.1621 40.2486 61.818 40.2486 62.627V65.1074H34.8926V57.8926C34.8926 54.3484 37.7752 51.4648 41.3181 51.4648H58.6814C62.2246 51.4648 65.107 54.3484 65.107 57.8926V65.1074H59.751V62.627C59.751 61.818 59.0953 61.1621 58.2861 61.1621C57.4769 61.1621 56.8213 61.818 56.8213 62.627V65.1074H53.4179C52.6088 65.1074 51.9531 65.7633 51.9531 66.5723C51.9531 67.3813 52.6088 68.0371 53.4179 68.0371H58.2732C58.2777 68.0371 58.282 68.0377 58.2865 68.0377C58.291 68.0377 58.2953 68.0371 58.2998 68.0371H66.5722C67.3814 68.0371 68.0371 67.3813 68.0371 66.5723V57.8926C68.0371 52.7328 63.8404 48.5352 58.6818 48.5352H57.5943C59.8869 46.4605 61.3299 43.4633 61.3299 40.1352C61.3299 33.8879 56.2474 28.8055 50.0002 28.8055C43.7529 28.8055 38.6705 33.8879 38.6705 40.1352C38.6705 43.4633 40.1135 46.4605 42.406 48.5352H41.3185C36.1599 48.5352 31.9633 52.7328 31.9633 57.8926V66.5723C31.9629 67.3813 32.6187 68.0371 33.4277 68.0371ZM41.6 40.1352C41.6 35.5035 45.3681 31.7352 50 31.7352C54.6318 31.7352 58.4 35.5033 58.4 40.1352C58.4 44.767 54.6318 48.5352 50 48.5352C45.3681 48.5352 41.6 44.767 41.6 40.1352Z" fill="#A0D2EB" stroke="#A0D2EB" stroke-width="1.5"/>
</g>
</g>
</g>
<defs>
<clipPath id="clip0_85_65">
<rect width="100" height="100" fill="white"/>
</clipPath>
</defs>
</svg>
